REM DIRINDEX 1\2,1\3,1\4,1\5
REM DIRNAME cjc005,folder01,folder02,folder03,folder04
TITLE ""
FILE "P1Q_t_1342-1351.mp3" MP3
  TRACK 01 AUDIO
    TITLE "3:cjc005_4933"
    INDEX 01 00:00:00
  TRACK 02 AUDIO
    TITLE "0:"
    INDEX 01 00:01:13
  TRACK 03 AUDIO
    TITLE "4:cjc005_4934"
    INDEX 01 00:01:32
  TRACK 04 AUDIO
    TITLE "0:"
    INDEX 01 00:02:47
  TRACK 05 AUDIO
    TITLE "5:cjc005_4935"
    INDEX 01 00:02:71
  TRACK 06 AUDIO
    TITLE "0:"
    INDEX 01 00:07:11
  TRACK 07 AUDIO
    TITLE "3:cjc005_4936"
    INDEX 01 00:07:60
  TRACK 08 AUDIO
    TITLE "0:"
    INDEX 01 00:08:62
  TRACK 09 AUDIO
    TITLE "4:cjc005_4937"
    INDEX 01 00:09:18
  TRACK 10 AUDIO
    TITLE "0:"
    INDEX 01 00:10:16
  TRACK 11 AUDIO
    TITLE "5:cjc005_4938"
    INDEX 01 00:10:39
  TRACK 12 AUDIO
    TITLE "0:"
    INDEX 01 00:13:41
  TRACK 13 AUDIO
    TITLE "3:cjc005_4939"
    INDEX 01 00:14:17
  TRACK 14 AUDIO
    TITLE "0:"
    INDEX 01 00:15:32
  TRACK 15 AUDIO
    TITLE "4:cjc005_4940"
    INDEX 01 00:15:58
  TRACK 16 AUDIO
    TITLE "0:"
    INDEX 01 00:16:61
  TRACK 17 AUDIO
    TITLE "5:cjc005_4941"
    INDEX 01 00:17:02
  TRACK 18 AUDIO
    TITLE "0:"
    INDEX 01 00:21:43
  TRACK 19 AUDIO
    TITLE "3:cjc005_4942"
    INDEX 01 00:22:15
  TRACK 20 AUDIO
    TITLE "0:"
    INDEX 01 00:23:28
  TRACK 21 AUDIO
    TITLE "4:cjc005_4943"
    INDEX 01 00:23:50
  TRACK 22 AUDIO
    TITLE "0:"
    INDEX 01 00:24:55
  TRACK 23 AUDIO
    TITLE "5:cjc005_4944"
    INDEX 01 00:25:03
  TRACK 24 AUDIO
    TITLE "0:"
    INDEX 01 00:30:55
  TRACK 25 AUDIO
    TITLE "3:cjc005_4945"
    INDEX 01 00:31:31
  TRACK 26 AUDIO
    TITLE "0:"
    INDEX 01 00:32:47
  TRACK 27 AUDIO
    TITLE "4:cjc005_4946"
    INDEX 01 00:32:70
  TRACK 28 AUDIO
    TITLE "0:"
    INDEX 01 00:34:43
  TRACK 29 AUDIO
    TITLE "5:cjc005_4947"
    INDEX 01 00:34:65
  TRACK 30 AUDIO
    TITLE "0:"
    INDEX 01 00:39:25
  TRACK 31 AUDIO
    TITLE "3:cjc005_4948"
    INDEX 01 00:39:74
  TRACK 32 AUDIO
    TITLE "0:"
    INDEX 01 00:41:40
  TRACK 33 AUDIO
    TITLE "4:cjc005_4949"
    INDEX 01 00:41:65
  TRACK 34 AUDIO
    TITLE "0:"
    INDEX 01 00:42:70
  TRACK 35 AUDIO
    TITLE "5:cjc005_4950"
    INDEX 01 00:43:15
  TRACK 36 AUDIO
    TITLE "0:"
    INDEX 01 00:48:44
  TRACK 37 AUDIO
    TITLE "3:cjc005_4951"
    INDEX 01 00:49:16
  TRACK 38 AUDIO
    TITLE "0:"
    INDEX 01 00:50:31
  TRACK 39 AUDIO
    TITLE "4:cjc005_4952"
    INDEX 01 00:50:60
  TRACK 40 AUDIO
    TITLE "0:"
    INDEX 01 00:51:52
  TRACK 41 AUDIO
    TITLE "5:cjc005_4953"
    INDEX 01 00:51:69
  TRACK 42 AUDIO
    TITLE "0:"
    INDEX 01 00:55:65
  TRACK 43 AUDIO
    TITLE "3:cjc005_4954"
    INDEX 01 00:56:41
  TRACK 44 AUDIO
    TITLE "0:"
    INDEX 01 00:57:70
  TRACK 45 AUDIO
    TITLE "4:cjc005_4955"
    INDEX 01 00:58:18
  TRACK 46 AUDIO
    TITLE "0:"
    INDEX 01 00:59:32
  TRACK 47 AUDIO
    TITLE "5:cjc005_4956"
    INDEX 01 00:59:51
  TRACK 48 AUDIO
    TITLE "0:"
    INDEX 01 01:03:61
  TRACK 49 AUDIO
    TITLE "3:cjc005_4957"
    INDEX 01 01:04:37
  TRACK 50 AUDIO
    TITLE "0:"
    INDEX 01 01:05:56
  TRACK 51 AUDIO
    TITLE "4:cjc005_4958"
    INDEX 01 01:06:06
  TRACK 52 AUDIO
    TITLE "0:"
    INDEX 01 01:07:14
  TRACK 53 AUDIO
    TITLE "5:cjc005_4959"
    INDEX 01 01:07:35
  TRACK 54 AUDIO
    TITLE "0:"
    INDEX 01 01:11:31
  TRACK 55 AUDIO
    TITLE "3:cjc005_4960"
    INDEX 01 01:12:05
  TRACK 56 AUDIO
    TITLE "0:"
    INDEX 01 01:13:22
  TRACK 57 AUDIO
    TITLE "4:cjc005_4961"
    INDEX 01 01:13:49
  TRACK 58 AUDIO
    TITLE "0:"
    INDEX 01 01:14:59
  TRACK 59 AUDIO
    TITLE "5:cjc005_4962"
    INDEX 01 01:15:05
  TRACK 60 AUDIO
    TITLE "0:"
    INDEX 01 01:19:05
